<svg width="14" height="15" viewBox="0 0 14 15" fill="none" xmlns="http://www.w3.org/2000/svg">
<path d="M13 3.65333C10.78 3.43333 8.54667 3.32 6.32 3.32C5 3.32 3.68 3.38667 2.36 3.52L1 3.65333M4.66667 2.98L4.81333 2.10667C4.92 1.47333 5 1 6.12667 1H7.87333C9 1 9.08667 1.5 9.18667 2.11333L9.33333 2.98M11.5667 5.76L11.1333 12.4733C11.06 13.52 11 14.3333 9.14 14.3333H4.86C3 14.3333 2.94 13.52 2.86667 12.4733L2.43333 5.76M5.88667 10.6667H8.10667M5.33333 8H8.66667" stroke="#ddd" strokeLinecap="round" strokeLinejoin="round"/>
</svg>
