<svg width="15" height="15" viewBox="0 0 15 15" fill="none" xmlns="http://www.w3.org/2000/svg">
<path d="M5 4.99968H3.28667C1.76 4.99968 1 5.75968 1 7.28634V12.0463C1 13.573 1.76 14.333 3.28667 14.333H6.33333C7.86 14.333 8.62 13.573 8.62 12.0463" stroke="#ddd" strokeLinecap="round" strokeLinejoin="round"/>
<path d="M9.58005 5.66667H11.7534M10.6667 6.75333V4.58M12.0467 10.3333H9.00005C7.47338 10.3333 6.71338 9.57333 6.71338 8.04667V3.28667C6.71338 1.76 7.47338 1 9.00005 1H12.0467C13.5734 1 14.3334 1.76 14.3334 3.28667V8.04667C14.3334 9.57333 13.5734 10.3333 12.0467 10.3333Z" stroke="#ddd" strokeLinecap="round" strokeLinejoin="round"/>
</svg>
